# xmcd CD database file
#
# Track frame offsets:
#	150
#	8605
#	23860
#	37752
#	52400
#	66277
#	74200
#	87385
#	100695
#	112835
#	125700
#	149867
#	166545
#	185410
#	203740
#	219127
#	237835
#
# Disc length: 3398 seconds
#
# Revision: 5
# Processed by: cddbd v1.5.2PL0 Copyright (c) Steve Scherf et al.
# Submitted via: CDex 1.51
#
DISCID=ef0d4411
DTITLE=The Blues Brothers - The Blues Brothers Complete (Disc-1)
DYEAR=1900
DGENRE=Blues
TTITLE0=I Cant Turn You Loose
TTITLE1=Everybody Needs Somebody To Love
TTITLE2=Gimme Some Lovin
TTITLE3=Think
TTITLE4=Soul Man
TTITLE5=Soul Finder
TTITLE6=Messin With The Kid
TTITLE7=Hey Bartender
TTITLE8=(I Got Everything I Need) Almost
TTITLE9=Rubber Buiscuit
TTITLE10=Shotgun Blues
TTITLE11=Groove Me
TTITLE12=I Dont Know
TTITLE13="B" Movie Box Car Blues
TTITLE14=Flipflop And Fly
TTITLE15=She Caught The Katy
TTITLE16=Peter Gunn Theme
EXTD=
EXTT0=
EXTT1=
EXTT2=
EXTT3=
EXTT4=
EXTT5=
EXTT6=
EXTT7=
EXTT8=
EXTT9=
EXTT10=
EXTT11=
EXTT12=
EXTT13=
EXTT14=
EXTT15=
EXTT16=
PLAYORDER=
